<svg xmlns="http://www.w3.org/2000/svg" viewBox="0 0 18 18" aria-labelledby="IconBase-title-v-0-0-0-0-0-0-5-0-0-1-1-0-0 IconBase-description-v-0-0-0-0-0-0-5-0-0-1-1-0-0" role="graphics-symbol img" width="20" height="20" fill="none" class="Explore-buttonIcon-Z7y Explore-filterButtonIcon-ayg Explore-closeFilterIcon-i4s" data-iid="v-0-0-0-0-0-0-5-0-0-1-1-0-0"><title id="IconBase-title-v-0-0-0-0-0-0-5-0-0-1-1-0-0">Collapse Close Icon</title><desc id="IconBase-description-v-0-0-0-0-0-0-5-0-0-1-1-0-0"></desc><g><!--[--><path class="CollapseClose-path-dRZ" clip-rule="evenodd" fill-rule="evenodd" d="M2.09 1.526c.31 0 .562.252.562.563v15.82a.562.562 0 1 1-1.125 0V2.089c0-.311.252-.563.563-.563Zm6.198 5.438c.22.22.22.576 0 .796L6.612 9.436H17.91a.563.563 0 0 1 0 1.125H6.612l1.676 1.677a.562.562 0 1 1-.795.795l-2.637-2.636a.562.562 0 0 1 0-.796l2.637-2.637c.22-.22.576-.22.795 0Z"></path><!--]--></g></svg>