<svg data-iid="v-1-22" xmlns="http://www.w3.org/2000/svg" viewBox="0 0 20 20" aria-labelledby="IconBase-title-v-1-22 IconBase-description-v-1-22" role="graphics-symbol img" width="100%" height="100%" class="ProjectCoverAd-linkOutIcon-HaG" aria-hidden="true"><title id="IconBase-title-v-1-22"></title><desc id="IconBase-description-v-1-22"></desc><g><path d="M9.60427 4.60428C10.1512 4.0573 10.8931 3.75 11.6667 3.75H17.7778C18.1613 3.75 18.4722 4.06092 18.4722 4.44445C18.4722 4.82798 18.1613 5.13889 17.7778 5.13889H11.6667C11.2615 5.13889 10.8729 5.29986 10.5864 5.58637C10.2998 5.87288 10.1389 6.26148 10.1389 6.66667V9.44445C10.1389 9.82798 9.82797 10.1389 9.44444 10.1389C9.06091 10.1389 8.75 9.82798 8.75 9.44445V6.66667C8.75 5.89312 9.05729 5.15126 9.60427 4.60428Z"></path><path d="M13.9534 0.62007C14.2246 0.348872 14.6643 0.348872 14.9355 0.62007L18.2688 3.9534C18.54 4.2246 18.54 4.6643 18.2688 4.9355L14.9355 8.26883C14.6643 8.54003 14.2246 8.54003 13.9534 8.26883C13.6822 7.99763 13.6822 7.55793 13.9534 7.28674L16.7957 4.44445L13.9534 1.60216C13.6822 1.33097 13.6822 0.891267 13.9534 0.62007Z"></path><path d="M4.44444 7.36112C4.33393 7.36112 4.22795 7.40501 4.14981 7.48315C4.07167 7.5613 4.02777 7.66728 4.02777 7.77778V16.6667C4.02777 16.7772 4.07167 16.8832 4.14981 16.9613C4.22795 17.0394 4.33393 17.0833 4.44444 17.0833H14.4444C14.5549 17.0833 14.6609 17.0394 14.7391 16.9613C14.8172 16.8832 14.8611 16.7772 14.8611 16.6667V11.1111C14.8611 10.7276 15.172 10.4167 15.5556 10.4167C15.9391 10.4167 16.25 10.7276 16.25 11.1111V16.6667C16.25 17.1455 16.0598 17.6048 15.7212 17.9434C15.3826 18.282 14.9233 18.4722 14.4444 18.4722H4.44444C3.96558 18.4722 3.50633 18.282 3.16772 17.9434C2.82911 17.6048 2.63889 17.1455 2.63889 16.6667V7.77778C2.63889 7.29892 2.82911 6.83967 3.16772 6.50106C3.50633 6.16245 3.96558 5.97223 4.44444 5.97223H6.11111C6.49464 5.97223 6.80555 6.28314 6.80555 6.66667C6.80555 7.0502 6.49464 7.36112 6.11111 7.36112H4.44444Z"></path></g></svg>