<svg xmlns="http://www.w3.org/2000/svg" viewBox="0 0 20 20" aria-labelledby="IconBase-title-v-0-0-0-0-0-0-5-0-0-4-1-0-0-0-0-0-0 IconBase-description-v-0-0-0-0-0-0-5-0-0-4-1-0-0-0-0-0-0" role="graphics-symbol img" width="100%" height="100%" class="ExploreCategoryCarousel-icon-hZF" data-iid="v-0-0-0-0-0-0-5-0-0-4-1-0-0-0-0-0-0"><title id="IconBase-title-v-0-0-0-0-0-0-5-0-0-4-1-0-0-0-0-0-0">For You Star Icon</title><desc id="IconBase-description-v-0-0-0-0-0-0-5-0-0-4-1-0-0-0-0-0-0"></desc><g><!--[--><path class="ForYouStar-path-Vb2" fill-rule="evenodd" d="M9.847 2.013a1.08 1.08 0 0 0-.64.346c-.115.125-.06.02-1.648 3.162l-.61 1.207-2.014.199c-1.107.109-2.067.211-2.132.227a1.07 1.07 0 0 0-.799.938c-.022.224.047.491.18.684.034.052.486.514 1.003 1.029l1.684 1.674.743.739-.586 2.124c-.676 2.448-.67 2.427-.67 2.58 0 .512.37.96.875 1.059.171.033.361.02.526-.035.066-.023 1.047-.5 2.18-1.062L10 15.864l2.06 1.02a93 93 0 0 0 2.189 1.064 1.066 1.066 0 0 0 1.394-1.011c0-.192.025-.092-.687-2.671l-.565-2.048 1.284-1.273c1.923-1.906 2.11-2.095 2.177-2.21a1.07 1.07 0 0 0-.799-1.607c-.07-.009-.992-.101-2.048-.205a231 231 0 0 1-1.94-.194c-.01-.004-.323-.61-.694-1.346s-.856-1.695-1.077-2.13l-.4-.79-.138-.139a.9.9 0 0 0-.281-.207 1.06 1.06 0 0 0-.628-.104m-.969 3.265a132 132 0 0 1-1.16 2.276.6.6 0 0 1-.266.185c-.033.009-1.032.112-2.218.23-1.187.117-2.159.215-2.16.217s.802.801 1.786 1.776c1.373 1.36 1.799 1.79 1.829 1.853.032.066.04.107.04.233 0 .149-.018.215-.652 2.512a214 214 0 0 0-.646 2.366c.003.003.931-.453 2.062-1.014s2.131-1.054 2.223-1.095c.145-.066.18-.075.283-.075.065 0 .14.008.166.02.026.01 1.03.504 2.229 1.097 1.2.592 2.183 1.075 2.185 1.072s-.293-1.08-.655-2.393c-.445-1.614-.66-2.416-.66-2.473a.5.5 0 0 1 .085-.297c.027-.043.845-.865 1.818-1.827.973-.963 1.76-1.753 1.747-1.755s-.988-.1-2.168-.217c-1.221-.121-2.175-.223-2.214-.236a.55.55 0 0 1-.25-.182c-.026-.035-.548-1.058-1.16-2.274A205 205 0 0 0 10 3.067c-.005 0-.51.995-1.122 2.21" clip-rule="evenodd"></path><!--]--></g></svg>