<svg xmlns="http://www.w3.org/2000/svg" viewBox="0 0 20 20" aria-labelledby="IconBase-title-v-0-0-0-0-0-0-5-0-0-4-1-1-0-0-0-0-0 IconBase-description-v-0-0-0-0-0-0-5-0-0-4-1-1-0-0-0-0-0" role="graphics-symbol img" width="100%" height="100%" class="ExploreCategoryCarousel-icon-hZF" data-iid="v-0-0-0-0-0-0-5-0-0-4-1-1-0-0-0-0-0"><title id="IconBase-title-v-0-0-0-0-0-0-5-0-0-4-1-1-0-0-0-0-0">Following Heart Icon</title><desc id="IconBase-description-v-0-0-0-0-0-0-5-0-0-4-1-1-0-0-0-0-0"></desc><g><!--[--><path class="FollowingHeart-path-PgY" fill-rule="evenodd" d="M6.224 3.125a4.9 4.9 0 0 0-1.818.593 4.5 4.5 0 0 0-1 .762c-.77.767-1.23 1.698-1.382 2.809-.03.215-.03.907-.001 1.126.144 1.095.604 2.045 1.349 2.792.254.255 5.778 5.364 5.896 5.454a1.24 1.24 0 0 0 1.465 0c.068-.052 3.262-3 5.814-5.367a4.805 4.805 0 0 0 1.413-2.76 5.5 5.5 0 0 0 0-1.347 4.787 4.787 0 0 0-3.587-3.956 5.1 5.1 0 0 0-1.917-.07 4.8 4.8 0 0 0-2.327 1.096l-.128.11-.154-.133a4.84 4.84 0 0 0-2.42-1.092 7 7 0 0 0-1.203-.017m-.017 1.119a3.7 3.7 0 0 0-1.667.706 4.7 4.7 0 0 0-.713.72c-1.013 1.376-.964 3.235.12 4.532.168.2-.048-.002 3.207 3.01 3.1 2.87 2.83 2.641 2.972 2.514.097-.086 5.266-4.869 5.568-5.152.266-.25.445-.458.613-.715a3.66 3.66 0 0 0-.547-4.651 3.58 3.58 0 0 0-2.506-1c-.591 0-1.1.115-1.608.362-.457.222-.805.492-1.215.942-.123.135-.236.196-.382.207-.219.016-.352-.053-.558-.29a4.3 4.3 0 0 0-.62-.557 3.75 3.75 0 0 0-1.63-.638 4.6 4.6 0 0 0-1.034.01" clip-rule="evenodd"></path><!--]--></g></svg>